<?xml version="1.0" standalone="no"?><!DOCTYPE svg PUBLIC "-//W3C//DTD SVG 1.1//EN" "http://www.w3.org/Graphics/SVG/1.1/DTD/svg11.dtd"><svg t="1551357789453" class="icon" style="" viewBox="0 0 1024 1024" version="1.1" xmlns="http://www.w3.org/2000/svg" p-id="4650" xmlns:xlink="http://www.w3.org/1999/xlink" width="32" height="32"><defs><style type="text/css"></style></defs><path d="M95.5 478h752.3L628.5 258.7c-10.7-10.7-10.7-28.1 0-38.7l6.5-6.5c10.7-10.7 28.1-10.7 38.7 0l267.9 267.9c9.2 4.5 16 13.4 17.6 23.9 1.5 7.1 0.1 14.7-4 21-2.4 4-5.6 7.5-9.4 10.1l-0.5 0.5c-2.6 2.6-5.6 4.6-8.8 5.9L669.7 809.3c-10.7 10.7-28.1 10.7-38.7 0l-6.5-6.5c-10.7-10.7-10.7-28.1 0-38.7L846.6 542H95.5c-17.6 0-32-14.4-32-32s14.4-32 32-32z" fill="#666666" p-id="4651"></path></svg>