<?xml version="1.0" standalone="no"?><!DOCTYPE svg PUBLIC "-//W3C//DTD SVG 1.1//EN" "http://www.w3.org/Graphics/SVG/1.1/DTD/svg11.dtd"><svg t="1551697699801" class="icon" style="" viewBox="0 0 1024 1024" version="1.1" xmlns="http://www.w3.org/2000/svg" p-id="4377" xmlns:xlink="http://www.w3.org/1999/xlink" width="32" height="32"><defs><style type="text/css"></style></defs><path d="M842.782 468.855H727.73V152.447c0-31.754-25.785-57.513-57.524-57.513H152.453c-31.768 0-57.525 25.759-57.525 57.513v719.09c0 31.771 25.757 57.53 57.525 57.53h690.329c47.584 0 86.29-38.707 86.29-86.291v-287.63c0-47.585-38.706-86.29-86.29-86.29zM670.206 871.538H152.453V152.447h517.753v719.09z m201.34-28.762c0 15.843-12.92 28.762-28.763 28.762H727.73V526.38h115.053c15.844 0 28.762 12.894 28.762 28.765v287.63z" fill="#606266" p-id="4378"></path><path d="M238.743 238.736h316.41v57.54h-316.41z m0 172.58h230.104v57.54H238.743z m0 172.594h345.172v57.523H238.743z" fill="#606266" p-id="4379"></path></svg>