<?xml version="1.0" standalone="no"?><!DOCTYPE svg PUBLIC "-//W3C//DTD SVG 1.1//EN" "http://www.w3.org/Graphics/SVG/1.1/DTD/svg11.dtd"><svg t="1551697866021" class="icon" style="" viewBox="0 0 1024 1024" version="1.1" xmlns="http://www.w3.org/2000/svg" p-id="5842" xmlns:xlink="http://www.w3.org/1999/xlink" width="32" height="32"><defs><style type="text/css"></style></defs><path d="M480 224a32 32 0 0 1 64 0v448a32 32 0 0 1-64 0z" p-id="5843" fill="#409EFF"></path><path d="M800 832v-160a32 32 0 0 1 64 0v192a32 32 0 0 1-32 32H192a32 32 0 0 1-32-32v-192a32 32 0 0 1 64 0v160z" p-id="5844" fill="#409EFF"></path><path d="M648.32 522.24a32 32 0 1 1 47.36 43.52l-176 192a32 32 0 0 1-47.36 0l-176-192a32 32 0 1 1 47.36-43.52l152.32 166.4z" p-id="5845" fill="#409EFF"></path></svg>