<?xml version="1.0" standalone="no"?><!DOCTYPE svg PUBLIC "-//W3C//DTD SVG 1.1//EN" "http://www.w3.org/Graphics/SVG/1.1/DTD/svg11.dtd"><svg t="1551274380597" class="icon" style="" viewBox="0 0 1024 1024" version="1.1" xmlns="http://www.w3.org/2000/svg" p-id="10127" xmlns:xlink="http://www.w3.org/1999/xlink" width="32" height="32"><defs><style type="text/css"></style></defs><path d="M911.6 337.9l-25.9 103.7c-2.1 7.4-6.9 11.1-14.3 11.1H719.9l-29.6 118.5h144c4.7 0 8.5 1.9 11.6 5.6 3.1 4.3 4 8.7 2.8 13l-26.1 103.7c-1.6 7.4-6.3 11.1-14.3 11.1H656.9l-37.5 151.9c-2.1 7.4-6.9 11.1-14.3 11.1H501.4c-5 0-9-1.9-12.1-5.6-2.8-3.7-3.7-8-2.8-13l36.1-144.4H405.1l-37.5 151.9c-2.1 7.4-6.9 11.1-14.3 11.1H249c-4.7 0-8.5-1.9-11.6-5.6-2.8-3.7-3.7-8-2.8-13l36.1-144.3h-144c-4.7 0-8.5-1.9-11.6-5.6-2.8-3.7-3.7-8-2.8-13l26-103.9c2.1-7.4 6.9-11.1 14.3-11.1H304l29.6-118.5H189.7c-4.7 0-8.5-1.9-11.6-5.6-3.1-4.3-4-8.7-2.8-13l26-103.8c1.6-7.4 6.3-11.1 14.3-11.1H367l37.5-151.9c2.1-7.4 7.1-11.1 14.8-11.1H523c4.7 0 8.5 1.9 11.6 5.6 2.8 3.7 3.7 8 2.8 13l-36.1 144.4H619l37.5-151.9c2.1-7.4 7.1-11.1 14.8-11.1H775c4.7 0 8.5 1.9 11.6 5.6 2.8 3.7 3.7 8 2.8 13l-36.1 144.4h144c4.7 0 8.5 1.9 11.6 5.6 2.7 3.9 3.7 8.2 2.7 13.2zM556 571.2l29.6-118.5H468l-29.6 118.5H556z" p-id="10128" fill="#009B6D"></path></svg>