<?xml version="1.0" standalone="no"?><!DOCTYPE svg PUBLIC "-//W3C//DTD SVG 1.1//EN" "http://www.w3.org/Graphics/SVG/1.1/DTD/svg11.dtd"><svg t="1551695328673" class="icon" style="" viewBox="0 0 1026 1024" version="1.1" xmlns="http://www.w3.org/2000/svg" p-id="2076" xmlns:xlink="http://www.w3.org/1999/xlink" width="32.0625" height="32"><defs><style type="text/css"></style></defs><path d="M531.090286 1005.714286c-272.676571 0-494.518857-221.842286-494.518857-494.518857 0-272.676571 221.842286-494.518857 494.518857-494.518857s494.518857 221.842286 494.518857 494.518857C1025.536 783.872 803.693714 1005.714286 531.090286 1005.714286zM531.090286 89.892571C298.715429 89.892571 109.714286 278.893714 109.714286 511.195429c0 232.374857 189.001143 421.376 421.376 421.376s421.376-189.001143 421.376-421.376C952.393143 278.893714 763.465143 89.892571 531.090286 89.892571z" p-id="2077" fill="#71C0FE"></path><path d="M714.459429 807.277714 475.428571 563.492571 475.428571 182.857143 548.571429 182.857143 548.571429 533.650286 766.683429 756.150857Z" p-id="2078" fill="#71C0FE"></path></svg>