<?xml version="1.0" standalone="no"?><!DOCTYPE svg PUBLIC "-//W3C//DTD SVG 1.1//EN" "http://www.w3.org/Graphics/SVG/1.1/DTD/svg11.dtd"><svg t="1551189453577" class="icon" style="" viewBox="0 0 1024 1024" version="1.1" xmlns="http://www.w3.org/2000/svg" p-id="2112" xmlns:xlink="http://www.w3.org/1999/xlink" width="32" height="32"><defs><style type="text/css"></style></defs><path d="M512 1024c-281.6 0-512-230.4-512-512 0-281.6 230.4-512 512-512s512 230.4 512 512C1024 793.6 793.6 1024 512 1024zM512 64C262.4 64 64 262.4 64 512c0 249.6 198.4 448 448 448s448-198.4 448-448C960 262.4 761.6 64 512 64z" p-id="2113" fill="#919baa"></path><path d="M729.6 544 512 544C492.8 544 480 524.8 480 512L480 179.2c0-19.2 12.8-32 32-32s32 12.8 32 32l0 294.4 185.6 0c19.2 0 32 12.8 32 32S748.8 544 729.6 544z" p-id="2114" fill="#919baa"></path></svg>