<?xml version="1.0" standalone="no"?><!DOCTYPE svg PUBLIC "-//W3C//DTD SVG 1.1//EN" "http://www.w3.org/Graphics/SVG/1.1/DTD/svg11.dtd"><svg t="1551190007766" class="icon" style="" viewBox="0 0 1024 1024" version="1.1" xmlns="http://www.w3.org/2000/svg" p-id="4032" xmlns:xlink="http://www.w3.org/1999/xlink" width="32" height="32"><defs><style type="text/css"></style></defs><path d="M891 129H133c-2.2 0-4 1.8-4 4v758c0 2.2 1.8 4 4 4h758c2.2 0 4-1.8 4-4V133c0-2.2-1.8-4-4-4z m-44 48v311h-83.6l-53.5-111.4c-4.1-8.6-13-14-22.6-13.6-9.6 0.4-18 6.4-21.4 15.3l-71.8 184.5-66.8-154.4c-3.6-8.3-11.5-13.9-20.5-14.4s-17.6 4-22.2 11.8l-49 83.2H177V177h670zM177 847V537h272.3c8.5 0 16.4-4.5 20.7-11.8l32-54.3 71.3 164.7c3.8 8.8 12.5 14.5 22 14.5h0.5c9.7-0.2 18.4-6.2 21.9-15.3l72.9-187.4 36.1 75.1c4 8.3 12.4 13.6 21.6 13.6H847v311H177z" p-id="4033" fill="#919baa"></path></svg>