<?xml version="1.0" standalone="no"?><!DOCTYPE svg PUBLIC "-//W3C//DTD SVG 1.1//EN" "http://www.w3.org/Graphics/SVG/1.1/DTD/svg11.dtd"><svg t="1551272145858" class="icon" style="" viewBox="0 0 1024 1024" version="1.1" xmlns="http://www.w3.org/2000/svg" p-id="8324" xmlns:xlink="http://www.w3.org/1999/xlink" width="32" height="32"><defs><style type="text/css"></style></defs><path d="M512 217.5C264.9 217.5 64.5 527 64.5 527S264.9 806.5 512 806.5 959.5 527 959.5 527 759.1 217.5 512 217.5z m282.1 412.8c-43.6 37.4-87.7 67.1-131 88.1-51.9 25.3-102.8 38.1-151.2 38.1s-99.2-12.8-151.2-38.1c-43.3-21.1-87.4-50.7-131-88.1-45.9-39.4-81.8-79.4-103-104.9 20.8-27.9 56.6-72.5 103.2-117 43.8-41.9 88.1-75 131.5-98.6 51.8-28.1 102.4-42.3 150.4-42.3 47.7 0 97.9 14.1 149.4 41.8 43.3 23.3 87.3 56.2 131 97.7 47.1 44.8 83.6 90.1 104.7 118.4-21 25.6-56.9 65.5-102.8 104.9zM512 302c-116 0-210 94-210 210s94 210 210 210 210-94 210-210-94-210-210-210z m113.1 323.1C594.9 655.4 554.7 672 512 672s-82.9-16.6-113.1-46.9C368.6 594.9 352 554.7 352 512c0-42.7 16.6-82.9 46.9-113.1C429.1 368.6 469.3 352 512 352s82.9 16.6 113.1 46.9C655.4 429.1 672 469.3 672 512c0 42.7-16.6 82.9-46.9 113.1z" fill="#999999" p-id="8325"></path></svg>